<?xml version="1.0"?><svg width="640" height="480" xmlns="http://www.w3.org/2000/svg">
 <title>whiteCloud_big</title>

 <metadata id="metadata3228">image/svg+xml</metadata>
 <g>
  <title>Layer 1</title>
  <g id="layer1">
   <g id="g6444">
    <path id="path5530" d="m340.567841,67.80687c-65.061401,0 -120.019363,46.816032 -137.118866,110.74855c-7.118408,-4.541763 -15.307739,-7.154953 -24.063553,-7.154953c-27.077637,0 -49.048447,24.790726 -49.048447,55.343704c0,0.311203 -0.004547,0.607346 0,0.917313c-8.111214,-1.875107 -16.615677,-2.935379 -25.418488,-2.935379c-53.671772,0 -97.229745,37.216675 -97.229754,83.046112c0,45.829437 43.557982,83.046082 97.229754,83.046082c21.257957,0 40.899994,-5.882263 56.907059,-15.777527c9.559952,32.273621 36.537811,55.588318 68.342636,55.588318c21.551636,0 40.876617,-10.706818 54.088776,-27.641266c12.817627,7.56543 27.890686,11.924866 44.008087,11.924866c21.929443,0 41.942078,-8.04892 56.961273,-21.281281c20.238647,23.700775 49.998199,38.709991 83.192688,38.709991c40.722656,0 76.313354,-22.608673 95.441284,-56.138702c2.879517,0.476227 5.833923,0.733856 8.834167,0.733856c32.396423,0 58.641357,-28.74765 58.641357,-64.210938c0,-35.463287 -26.244934,-64.272034 -58.641357,-64.272034c-5.796997,0 -11.402283,0.974213 -16.692749,2.690735c-17.456787,-23.218689 -43.556946,-39.315811 -73.383026,-43.235336c-6.100983,-78.436462 -67.376312,-140.102142 -142.050842,-140.102112z" stroke-dashoffset="0" stroke-miterlimit="4" stroke-width="2.587" stroke="#000000" fill-rule="nonzero" fill="#ffffff"/>
    <path id="path6438" d="m337.465149,64.320831c-59.468933,0.200691 -117.610184,45.023605 -136.089172,109.036255c-26.897446,-15.39061 -63.027069,2.413651 -71.757065,34.796188c-1.430161,4.910477 -2.369064,10.058594 -2.601479,15.227173c-42.200371,-8.385757 -92.109688,7.197144 -114.735465,50.634933c-15.133199,28.339996 -7.778132,66.781372 13.766086,88.182983c34.93779,37.491943 92.141972,41.452362 134.029675,19.202118c13.589905,40.951691 57.681747,64.119537 94.357346,49.044891c11.680313,-4.263977 22.322342,-12.712067 30.783981,-22.137421c31.455414,17.120972 71.277344,14.078827 99.66864,-9.111877c45.540039,51.605957 128.605103,49.505585 171.425781,-5.198029c5.114014,-3.940674 6.574524,-15.46701 14.037048,-12.842194c34.590149,2.708313 67.161194,-32.227844 64.38623,-71.6716c-1.131348,-40.625702 -38.349487,-71.751831 -73.274597,-63.415939c-7.203247,3.367783 -9.962585,-8.648605 -15.879761,-11.680283c-16.747742,-16.602081 -38.978516,-25.6483 -59.83371,-30.209702c-6.35614,-70.8414 -60.661713,-128.797501 -122.413452,-137.998268c-8.534058,-1.458298 -17.216827,-2.084793 -25.870087,-1.85923z" stroke-dashoffset="0" stroke-miterlimit="4" stroke-width="2.587" stroke="#a3ced5" fill-rule="nonzero" fill="#ffffff"/>
   </g>
  </g>
 </g>
</svg>