<?xml version="1.0"?><svg width="744.09448" height="1052.3622" xmlns="http://www.w3.org/2000/svg">
 <title>music note blue</title>
 <g>
  <title>Layer 1</title>
  <g id="layer1" transform="rotate(-12.3852, 369.486, 494.701)">
   <path stroke="#01015e" d="m380.400787,103.292877c-37.825745,146.734283 -80.510376,326.02829 -118.33609,472.762726c-140.897034,-87.054962 -239.165697,-16.297363 -224.959896,83.338806c9.1161,63.937805 134.794003,132.393677 254.717129,28.011169c22.290802,-97.290222 62.429352,-257.684814 92.826904,-383.558044l222.146881,140.662476c-22.671082,91.185791 -44.946838,181.776062 -69.355042,276.460632c-140.896942,-87.054932 -239.263306,-16.316162 -225.057526,83.320068c9.116119,63.937744 134.814941,132.306641 254.738068,27.924194l136.107361,-526.34259c-0.904541,-0.20578 -1.80957,-0.404419 -2.714111,-0.610199l0.279114,-0.311279c-19.49762,-13.715118 -300.97406,-197.240593 -320.392792,-201.657959zm26.526764,108.635696l222.32135,143.339645c-3.38092,13.370178 -6.65918,26.601257 -9.9776,39.845673l-222.44693,-141.540359c2.870941,-12.152237 7.683289,-31.082886 10.10318,-41.644958z" id="path5065" stroke-miterlimit="4" stroke-linecap="round" stroke-width="5" fill="#01015e"/>
  </g>
 </g>

</svg>